# xmcd CD database file
#
# Track frame offsets:
#	150
#	20762
#	41005
#	73817
#	95857
#	99007
#	133285
#	149692
#	177655
#
# Disc length: 2573 seconds
#
# Revision: 0
# Processed by: cddbd v1.5.1PL0 Copyright (c) Steve Scherf et al.
# Submitted via: CDex 1.51
#
DISCID=8e0a0b09
DTITLE=Miles Davis - You're Under Arrest [SRCS 9723]
DYEAR=2000
DGENRE=New Age
TTITLE0=One Phone Call - Street Scenes
TTITLE1=Human Nature
TTITLE2=MD 1 - Something's On Your Mind - MD 2
TTITLE3=Ms. Morrisine
TTITLE4=Katia Prelude
TTITLE5=Katia
TTITLE6=Time After Time
TTITLE7=You're Under Arrest
TTITLE8=Jean Pierre - You're Under Arrest - Then There Were None
EXTD=YEAR: 2000
EXTT0=
EXTT1=
EXTT2=
EXTT3=
EXTT4=
EXTT5=
EXTT6=
EXTT7=
EXTT8=
PLAYORDER=
